/* XPM */
static char *_578598575727[] = {
/* columns rows colors chars-per-pixel */
"64 64 195 2 ",
"   c #2F2F2F",
".  c #2F312E",
"X  c #2E332F",
"o  c #30322D",
"O  c #30302E",
"+  c #31312F",
"@  c #31332E",
"#  c #30322F",
"$  c #32342F",
"%  c #312F30",
"&  c #2F3130",
"*  c #2F3032",
"=  c gray19",
"-  c #313131",
";  c #313330",
":  c #303231",
">  c #323230",
",  c #333331",
"<  c #303032",
"1  c #303133",
"2  c #313133",
"3  c #313332",
"4  c #323232",
"5  c #333530",
"6  c #323431",
"7  c #313630",
"8  c #333532",
"9  c #323433",
"0  c #343631",
"q  c #343432",
"w  c #353533",
"e  c #353732",
"r  c #343633",
"t  c #333534",
"y  c #353734",
"u  c #343635",
"i  c #363634",
"p  c #373735",
"a  c #353736",
"s  c #373737",
"d  c #333832",
"f  c #363833",
"g  c #333834",
"h  c #373934",
"j  c #363835",
"k  c #373936",
"l  c #363837",
"z  c #353A36",
"x  c #363B37",
"c  c #383A35",
"v  c #383836",
"b  c #393937",
"n  c #383A37",
"m  c #3A3C37",
"M  c #3B3E37",
"N  c #373938",
"B  c #363A39",
"V  c #393B38",
"C  c #383A39",
"Z  c #3B3B39",
"A  c #393B3A",
"S  c #3B3D38",
"D  c #3A3C39",
"F  c #3A3F39",
"G  c #383C3B",
"H  c #3B3D3A",
"J  c #3A3C3B",
"K  c #3C3F38",
"L  c #3C3E39",
"P  c #3C3C3A",
"I  c #3D3F3A",
"U  c #3C3E3B",
"Y  c #393D3C",
"T  c #3B3D3C",
"R  c #3D3F3C",
"E  c #3C3E3D",
"W  c #3F3F3D",
"Q  c #3D3F3E",
"!  c #3E403B",
"~  c #3C413D",
"^  c #3F413C",
"/  c #3E403D",
"(  c #3F413E",
")  c #3E403F",
"_  c #41413F",
"`  c #40423F",
"'  c #42443F",
"]  c #3F4140",
"[  c #414340",
"{  c #404241",
"}  c #414342",
"|  c #424441",
" . c #434542",
".. c #424443",
"X. c #444740",
"o. c #444641",
"O. c #454742",
"+. c #444643",
"@. c #454744",
"#. c #444645",
"$. c #454746",
"%. c #464845",
"&. c #474946",
"*. c #484A45",
"=. c #494B46",
"-. c #484A47",
";. c #494C45",
":. c #4A4C47",
">. c #474948",
",. c #494B48",
"<. c #484A49",
"1. c #494B4A",
"2. c #4A4C49",
"3. c #4B4D4A",
"4. c #4A4C4B",
"5. c #4C4E49",
"6. c #4D4F4A",
"7. c #4C4E4B",
"8. c #4D4F4C",
"9. c #4C4E4D",
"0. c #4D4F4E",
"q. c #4B504A",
"w. c #4C514B",
"e. c #4E514A",
"r. c #4E504B",
"t. c #4F514C",
"y. c #4E504D",
"u. c #4F514E",
"i. c #4E504F",
"p. c #4E534F",
"a. c #50524D",
"s. c #51534E",
"d. c #50524F",
"f. c #52544F",
"g. c #53564F",
"h. c #4F5150",
"j. c #515350",
"k. c #505251",
"l. c #515352",
"z. c #535550",
"x. c #525451",
"c. c #535552",
"v. c #545550",
"b. c #545651",
"n. c #555553",
"m. c #555752",
"M. c #545653",
"N. c #535554",
"B. c #525655",
"V. c #555754",
"C. c #545655",
"Z. c #555756",
"A. c #555851",
"S. c #565952",
"D. c #565853",
"F. c #575954",
"G. c #565855",
"H. c #575956",
"J. c #565857",
"K. c #575C56",
"L. c #595B56",
"P. c #595C55",
"I. c #5A5D56",
"U. c #5A5C57",
"Y. c #575958",
"T. c #595B58",
"R. c #585A59",
"E. c #5B5B59",
"W. c #595B5A",
"Q. c #5B5B5B",
"!. c #5B5D58",
"~. c #5A5C59",
"^. c #5A5F59",
"/. c #5B5D5A",
"(. c #5A5C5B",
"). c #5C5F58",
"_. c #5C5E59",
"`. c #5D5E59",
"'. c #5D5F5A",
"]. c #5C5E5B",
"[. c #5B5D5C",
"{. c #5D5F5C",
"}. c #5C5E5D",
"|. c #5D5F5E",
" X c #5F615C",
".X c #5F615E",
"XX c #5E605F",
"oX c #60625D",
"OX c #60605E",
"+X c #60625F",
"@X c #62645F",
"#X c #5F6160",
"$X c #606261",
"%X c #616362",
"&X c #626461",
/* pixels */
" Xz.L.~.S.P.H.~.L.L.H.S.H.`.~.H.`.m.|.s.`.L.p.P.P.T.V.m.z.S.H.z.m.z.S.H.j.z.H.S.T.m.~.L. Xz.s.~.~.H.S.H.L.~.H.H.P.z.~.Y.m.L.H.H.",
"2.k k y v k k 6 H k k 6 6 d r r y % # - 8.z.H - y V V y # 6 k H ( y 6 6 6 k V y r R s.{ R L H H L H H N k k y r R y V L H H ! N.",
"w.y k r H - 6 6 6 # # - y k 6 - r # % % z.~.x & L v r - 6 6 y k y 6 r k y R V y % H L.2.{ L V . v H H H k r k k H V H H H y L  X",
"_   k 6 H - , y # r L R k k r r V H H # s.z.N k H d # # r v v r - - k H V y y y y V V.2.L y k - 6 r k k k r k k 6 ( R 6 y k H z.",
"w.y H 6 v - - = r r # # 6 # 6 . r k v r z.m.V ( 6 y v r k k L V V k H v - r y r V R V.} r # H H r r y k k k k k . k k - y H R H.",
"<.- -   k 6 r r k - # # k H v 6 # = # r P.S.v k k v v r y k r # H y r y k y 6 - & R |.@.d k L v k k y k y y g 6 k @ 6 6 y k L ~.",
"j.v 6 - - =   - = = r y * - - k r = r - p.7.y - v r - , r y - = - - # r r r 6 - % ( H.@.( H v r 6 y k k r 6 - - H 6 r v v y L p.",
"`.8.p.j.p.s.7.8.L.7.=.<.s.s.7.w.<.7.L.=.L.|.s.p.p.7.w.7.s.m.z.p.H.f.V.g.7.p.f.z.H.z.|.s.L.7.<.w.2.z.S.m.z.8.z.z.w.w.H.j.8.s.m.!.",
"z.T.L.~.P.`.7.|.L.f.|.~.V.H.m.L.m.H.}.L.H.H.H.H.m.V.|.g.H.`.z.~.m.P.T.`.~.m.V. Xz.S.L.~.H.L.~.m.H.S.S.~.~.~.z.z.L.F.L.S.m.S.L.~.",
"k k 6 - 6 L L N.S.H - & & v k - r -   . 6 6 6 6 y @ r r } p.m k - . - . d 6 - r H H H k r r k r r X.H.( - 6 k ( r r k d y v V L ",
"6 H H r - . y V.j.y H H . . 6 - r - - 6 k 6 y V y 6 # k X.oX( r 6 y y k H H v H H v k k r V H v N R S.6 6 k y 6 L y - - k H y - ",
"- k V H r 6 y L.H.- . k @ 6 k 6 & @ k k 6 - - k r y # r H H.H y 6 V R H H k k k 6 6 r k d m ! v - y P.! v r . V L V r r r 6 6 - ",
"] H 6 6 r L L H.P.- & H r k k & - N ( H 6 # X # 6 k - k H P.H 6 6 V N k 6 6 @ k L H L E k v v d & r ~.( V k - k 6 y H H 6 6 6 H ",
"k H k 6 - r k z.V.- 6 R H 6 .   r k 6 . 6 k k - & # . k } ~.( r N k 6 - r d v v H H v y 6 k k k 6 ( H.k r k 6 y k y y H E k v H ",
"- y N k - k N s.`.# - - - d 6 & - % = = # 6 @ - - - & # ( 8.N 6 r - - - r y r r d 6 6 # & # r - # } Y.(   # r L H - . 6 m v 6 & ",
"4.z.2.=.=.H.8.L.~.=.2.f.w.=.4.m.z.j.s.z.m.j.8.8.s.<.z.8.P.&Xh.z.4.m.f.f.m.m.7.8.z.h.j.p.2.p.s.7.m.V.S.H.V.s.3.w.w.2.s.m.p.2.&.p.",
"T.Y.J.W.W.J.J.J.#Xh.Y.W.J.Y.J.(.T.8. XH.m.m.~.P.P.H.N.z.H.z.z.`.R.[.(.(.l.[.J.J.(.(.J.(.(.R.J.T.~.H.m.H.~.~.L.L.}.p.H.OXp.`.S.V.",
"y N l l a r * a N * r r 9 a Q J.j.y k k H # 6 k k 6 6 @ k k y k u 9 9 l Q l.$.{ Q A Q Q A E A Q ( H H ( R R H H v R H.N., - y L ",
"r l a a r & * * E a r - * & l J.L.6 y 6 ( d H H - . . # k k 6 6 Q A A A { |.$.{ { { { { { Q Q Q k v m _ R E v l R R V.L.r 6 r - ",
"l l l r a N r r r 9 * 9 E l B J.m.v L 6 H @ v 6 k H k k ! H k N A l Q u A (.{ { Q Q Q Q Q A A Q d d ! ( ( V H V L R T.~.- . k k ",
"a r r & * a a * % & 9 9 A l C (.z.k H 6 V 6 k k r y r - 6 r # r A l A 9 l J.{ { { Q E A A C A Q r v L R R R L R H L ~.~.- 6 k r ",
"9 r * * r N N r 9 9 9 9 9 9 l J.H.6 & k R k H L k L y y r v r f Q l 9 9 A (.$.Q { Q A A A l l E k H L R V V V A R ( H.V.r k y 6 ",
"9 l B N l B B r % * 9 9 9 9 Q J.s.y - v r r . 6 - y # # 6 - # # 9 & * * A l.$.{ A l l l B A l N m L L L L N y L y ( L.z.6 6 6 k ",
"#.9.Z.h.9.9.1.>.l.i.C.C.i.l.l.(.~.j.m.T.7.L.7.p.j.m.w.2.m.m.p.2.j.N.h.N.l.|.J.l.k.9.i.l.(.J.J.l.w.w.j.V.v.s.j.j.z.s.L.T.2.H.7.=.",
"W.(.Y.}.i.(.R.J.J.J.l.(.l.|.J.J.H.f.~.f.&XS.j.`.~.z.$Xm.S.S.P.m.Y.N.i.|.}.N.|.N.J.Z.|.J.(.|.h.(.s.H.`.~.z.H.H.S.~.Y.z.z.}.S.V.~.",
"a B i.Q Q A { { Q $.{ Q l A A E ( H ( r R V ( H.m.m H H L 6 6 y A l l E A l l 9 l l E Q h.l.l 9 6 k k 6 r y H R V H m k N & . k ",
"l N |.Q Q A Q Q l Q { l 9 9 E A k y ! H ..H R H. XH k k ( r # 6 l N N Q E A E 9 N l A Q (.(.l 9 y N k k r y V R r v H ! m 6 6 k ",
"N E |.] A { V A l l Q 9 9 9 Q Q H k k k L V ( P.j.N 6 6 L ! v r A A E E B E E r A E Q E W.J.9 l 6 k k V k N y y % 6 k v k @ # k ",
"r l J.E l Q l l Q A A l Q l A A ( H V k H k H H.z.H k 6 ( ( R H Q E E l l A Q l A E l E Y.l.9 l r 6 6 v H L v r - 6 k 6 k 6 . y ",
"l B }.E l 9 C B Q A A E { A A A 6 H ( ( k k V z. XR v k H 6 k { A l A l 9 A A R A l l Q |.J.9 & k 6 6 k H H k k 6 y k k H k k k ",
"N Q J.Q A 9 N N A A C Q E Q A A H ( N r - k E f.j.N k 6 k # 6 V l * l 9 u l A A A a l A l.V.y r k 6 @ 6 r 6 6 & - 6 k k H v k k ",
"9.J.J.}.1.Z.i.i.i.J.J.J.i.l.l.k.8.h.2.2.f. Xq.H. Xh.H.2.p.S.L.V.T.4.R.(.l.C.i.l.Z.1.i.i.(.(.<.j.p.8.w.z.s.7.p.z.2.m.m.f.z.w.&.2.",
"~.N.z.H.L.Y.Y.T.T.m.H.oXY.z.`.z.~. Xz.~.Y.P.f.~.V.P.f.~.z.S.~.L.|.N.S.m.L.L.m.T.H.T.|.H.H.~.~.m.Y.Y.}.T.Y.Y.(.Y.}.J.Z.Y.(.Y.N.h.",
"( k k k y 6 y y ( _ w.2.6 - k V k v 6 H k r 6 H ( k H H L k ( 8.@.A H L R R V R V H H H L L H v ] N E ] 4.h.{ E N E Q E N a l Q ",
"H H N v H H V v r H P.p.6 & 6 6 6 k r v r k r ( k 6 H 6 L V ( ~.=.( R H V V r y L R V R L H V R Q l N E N.|.E N N l N N E A E Q ",
"k k H L L L H H r r H.2.6 v V v 6 k k k 6 . - v 6 y ( - k R H L.7._ ( H E V y l V v V R V r y H E N Q N N.(.9 E l 9 & r a N E E ",
"k H H V y y k y H H H.=.r R L R d H H k y - - y V k k k 6 H . H.<.L H H H R N R L L V L H k k H E E { E N.(.9 E r l B a * * N E ",
"V H H k r y y V y ( ~.s.L k - - 6 r k - v r k H H - . ( # k . ~.<.H H N V L y H { R R L ! H H H N A E E J.Y.9 l r a l r y N N V ",
"r r r 6 6 k k r - W p.7._ 6 . * - - 6 . v k k H N 6 & E 6 V k z.=.L k y y v 6 y L L k k k H N r 9 N l N i.4.l N * * & * l E N r ",
"s.7.w.p.z.m.8.@.8.P.m.V.S.7.<.z.m.j.j.=.H.p.s.7.8.z.2.j.=.V.T.H.|.8.2.=.8.j.8.j.m.m.p.2.p.z.z.&.$.h.i.i.#X}.i.J.h.N.Z.h.N.Z.N.h.",
"m.~.T.H.S.H.Y.L.H.P.L.P.H.H.H.H.T.z.m.L.m.L.H.H.z.~.~.z.z.~. XS.L.H.H.S.H.P.f.|.~.z.L.z. XV.z. X(.(.(.(.V.l.(.J.Y.Y.Y.h.}.h.Z.#X",
"r r k y r y k y k r 6 6 k H v k R X.p.( 6 k r # 6 k v k 6 r - - # - 6 - 6 k H s.7.L H y k . - 6 C l A C 9 9 l l ] N E E }.Y.Y r ",
"L L R H v k v k 6 r k k v k 6 6 - H `.H y H v k k H ( H N 6 6 r 6 6 y 6 H 6 6 |.s.k H k V H R L Q C C C 9 9 l Q N N E r 9.9.* E ",
"v m H r r y y r 6 V L H k 6 r k y r P.E k 6 - 6 6 6 6 6 6 @ - 6 6 k - 6 L k k ~.j.k H V H H R V l 9 l C 9 9 l A N E E a W.#Xr N ",
"y v r # 6 r d k v L H k 6 r L } H H  XL r 6 - . r & # 6 r 6 - 6 & H y & 6 v k p.h.v H k k 6 k 6 9 9 l Q B l r 9 * r l & 9.W.& * ",
"L v r # 6 r r r v r r k v v k 6 6 ] oXH - 6 k k V y y H H k # - y k y 6 6 - - H.2.k H r 6 6 V L A l A A N N B l l N N N 9.Y.r Y ",
"r r # = = = # = - # # r k k - * 6 ( 8.H & - 6 6 6 6 6 r r # - % # - - r 6 - 6 L.<.k v 6 k . - 6 Q A l 9 * l B r r 9 & E h.Z.* & ",
"8.s.r.7.s.m.g.7.w.8.7.8.j.p.p.8.p.s.H.~.j.2.w.z.j.z.m.z.j.s.s.w.<.L.~.2.8.N.s.S.`.p.s.2.S.j.p.f.J.C.J.l.i.W.h.#.h.Z.1.N.Y.W.h.|.",
"g.~.m.L.`.`.w.~.L.m.m.V.L.~.L.S.S.S.H.L.~.~.L.H.S.P.|.j.`.S.s.~.L.S.S.~.~.S.z.L.Y.~.H.P.~.S.~.H.T.V.L.L.S.T.H.~.S.T.m.m.T.L.|.m.",
"H V 6 H w.H.v y 6 y k k 6 # y y 6 r k y r 6 V L ( 4.m.y k r - & # 6 r k V k y k 6 6 6 k k 6 k z.j.A y t k H k 6 y y V H H V r r ",
"- y V L 2.j.. H k k y y y k y y r k v k r 6 N H k =.~.k L k H k y k H k k k N H R ( R ( k N 6  XS.L V V 6 k v L k 6 ( H k V - k ",
"y y r , 4.S.- v H k 6 y V V V y k d 6 6 k k 6 - k X.L.k H & k H N R R 6 . 6 R H H ( H k y @.k P.H.- - y k R ( r H y V H y . . k ",
"L y 6 k m.L.& k 6 g k H y 6 y H v r 6 6 k 6 # - k } `.r V - y v N L N - - r V L 6 v 6 6 6 } 6 g.L.6 - m H _ _ r k H 6 H k % k H ",
"# - - R S.S.& k k k k k k y y y d v v r 6 6 k v 6 =.P.@ k k R E 6 k k 6 6 d L V k 6 & k k v 6 ~.L.R L L r d d k # H . H H . ( V ",
"r - - v 8.Y.r - v 6 - k v y - # - r r r . . y H 6 } w.- r y k 6 * r r r k k k 6 6 . & k k 6 H H.j.k - # 6 k # - # k - k v # H 6 ",
"=.L.m.s.z.`.j.S.7.p.h.z.z.7.7.j.7.7.7.7.p.w.w.w.2.H.oX7.H.z.8.S.8.j.s.z.f.7.7.=.S.z.2.z.V.2.z.S.`.z.z.w.7.w.7.m.m.m.h.z.z.z.z.8.",
"P.m.~.~.z.m.`.S.H.`.z.H. XS.z.~.S.H.H.Y.H.z.z.H.|.H.z.H.L.L.S.m.N.H.|.S.H.T.f.H.f.P.L.P.L.z.f.~.H.S.H.z.H.P.j.T. Xj.`.j.H.H.z.T.",
"k # 6 y y v H 6 6 L v m h.H.( d ( k H & y - N H k k E k y 6 y k k { j.=.H k y k k H H H H N k H H H ( m k v L j.p.N R y y N V L ",
"k y H H y y H H L L v H ~.N.& - y N 6 v - k k k # k k k 6 y r r 6 ( H.7.k k k k 6 H H k v k k k k d k k & 6 k T.T.y L y y y k H ",
"k k H H y 6 d H k r r k S.z.- v & k 6 _ k ( k H r k v 6 y H k # k ( j.&.r H H y k ( H k H ( H k L L k _ r H V L.`.6 E R R H H H ",
"V 6 - 6 H ! k k - v H 6 7.L.y L r # H # ! 6 H H r k k 6 k H k 6 ( } z.>.y H H # k ( H k H ( H k v v k } y V k m.L.6 H ( ( H k y ",
"R H y H _ ( H m L ( L ( ~.L.y 6 H k L 6 m # k k 6 k L v k H H L L } P.2.H k v y k ( H k k H k H 6 k m _ y y V `.L.6 H H H r 6 6 ",
"r k y y k 6 # V V y - _ L.w.k k r H d ! X k 6 6 6 6 k k y y k H 6 _ h.&.H k 6 v d v k 6 6 6 d m k m m ( k y H H.s.y m d k 6 - 6 ",
"} } ( ( <.@._ <.( =.{ @.S.T.7.@.} X.} } } ' X.} } ( ( ( X.X.' } O.w.~.z.&.} ( O.&.&.&.O.} _ } =.&.O.O.} X.X.} m.|.} =.} =.} _ =."
};
