/* XPM */
static char *_578598569959[] = {
/* columns rows colors chars-per-pixel */
"64 64 195 2 ",
"   c #0A0C07",
".  c #090909",
"X  c #090B08",
"o  c #0A0A08",
"O  c #0B0B09",
"+  c #0B090A",
"@  c #090B0A",
"#  c gray4",
"$  c #0B0B0B",
"%  c #080D09",
"&  c #0B0D08",
"*  c #0A0C09",
"=  c #0B0D0A",
"-  c #0A0C0B",
";  c #0C0E09",
":  c #0C0C0A",
">  c #0D0D0B",
",  c #0D0F0A",
"<  c #0C0E0B",
"1  c #090A0C",
"2  c #0A0A0C",
"3  c #0A0B0D",
"4  c #0B0B0D",
"5  c #0B0D0C",
"6  c #0C0C0C",
"7  c #0D0F0C",
"8  c #0C0E0D",
"9  c #0E0E0C",
"0  c #0F0F0D",
"q  c #0D0F0E",
"w  c #0B100A",
"e  c #0E100B",
"r  c #0F110C",
"t  c #0E100D",
"y  c #0D120C",
"u  c #0F110E",
"i  c #0E100F",
"p  c #0D120E",
"a  c #10120D",
"s  c #10100E",
"d  c #11110F",
"f  c #11130E",
"g  c #10120F",
"h  c #12140F",
"j  c #0F1110",
"k  c #0F1410",
"l  c #111111",
"z  c #111310",
"x  c #101211",
"c  c #121210",
"v  c #131311",
"b  c #111312",
"n  c #101511",
"m  c #121411",
"M  c #101413",
"N  c #131512",
"B  c #121413",
"V  c #141611",
"C  c #151513",
"Z  c #151712",
"A  c #141613",
"S  c #131514",
"D  c #121615",
"F  c #131716",
"G  c #151714",
"H  c #141615",
"J  c #161614",
"K  c #151716",
"L  c #151811",
"P  c #141913",
"I  c #161912",
"U  c #161813",
"Y  c #171914",
"T  c #161815",
"R  c #171916",
"E  c #161817",
"W  c #161B17",
"Q  c #181A15",
"!  c #191917",
"~  c #191B16",
"^  c #181A17",
"/  c #171918",
"(  c #191B18",
")  c #181A19",
"_  c #1B1B19",
"`  c #191B1A",
"'  c #1A1C19",
"]  c #1B1D1A",
"[  c #1A1C1B",
"{  c #1C1E19",
"}  c #1C1E1B",
"|  c #1B1D1C",
" . c #1D1F1C",
".. c #1C1E1D",
"X. c #1E211A",
"o. c #1E201B",
"O. c #1F211C",
"+. c #1E201D",
"@. c #1F211E",
"#. c #1E201F",
"$. c #20221F",
"%. c #22241F",
"&. c #23261F",
"*. c #1F2120",
"=. c #212320",
"-. c #212322",
";. c #232520",
":. c #222421",
">. c #232522",
",. c #222423",
"<. c #242621",
"1. c #242623",
"2. c #232524",
"3. c #252724",
"4. c #242625",
"5. c #262823",
"6. c #272924",
"7. c #262825",
"8. c #252A24",
"9. c #262B25",
"0. c #272926",
"q. c #262827",
"w. c #282B24",
"e. c #282A25",
"r. c #292B26",
"t. c #282A27",
"y. c #2A2C27",
"u. c #272928",
"i. c #292B28",
"p. c #282A29",
"a. c #292B2A",
"s. c #282D29",
"d. c #2B2D28",
"f. c #2A2C29",
"g. c #2B2D2A",
"h. c #2A2C2B",
"j. c #2C2E29",
"k. c #2D2F2A",
"l. c #2C2E2B",
"z. c #2E2F2A",
"x. c #2B2D2C",
"c. c #2D2F2C",
"v. c #2F2F2D",
"b. c #2D2F2E",
"n. c #2D3029",
"m. c #2E302B",
"M. c #2F322B",
"N. c #2F312C",
"B. c #2E302D",
"V. c #2C302F",
"C. c #2F312E",
"Z. c #2E302F",
"A. c #30332C",
"S. c #30322D",
"D. c #31332E",
"F. c #30322F",
"G. c #33362F",
"H. c #2F3130",
"J. c #313330",
"K. c #303231",
"L. c #313332",
"P. c #333530",
"I. c #313630",
"U. c #333532",
"Y. c #323433",
"T. c #343730",
"R. c #343631",
"E. c #353533",
"W. c #353732",
"Q. c #343633",
"!. c #333534",
"~. c #353535",
"^. c #353734",
"/. c #343635",
"(. c #353736",
"). c #343933",
"_. c #363932",
"`. c #363833",
"'. c #373833",
"]. c #373934",
"[. c #363835",
"{. c #373936",
"}. c #363837",
"|. c #393B36",
" X c #3A3C37",
".X c #373938",
"XX c #393B38",
"oX c #383A39",
"OX c #3A3A38",
"+X c #393B3A",
"@X c #3A3C39",
"#X c #3A3C3B",
"$X c #3C3E39",
"%X c #3C3E3B",
"&X c #3B3D3C",
/* pixels */
"|.k.P.Q.A.P.P.P.K.P.K.A.F.`.`.F.`.n.{.g.`.A.g.P.Q.P.F.n.g.n.A.F.v.k.F.K.k.k.K.F.^.k.^.P.|.k.g.^.`.P.C.P.P.Q.K.C.Q.n.Q.K.z.P.F.F.",
"1.z z u m f u u J m z 5 6 p u u g # = # e.F.P 6 u m m u = = z P ! g 6 , , u f g s P g.( _ P L m J m D m m g u u P u D P ! Z ! C.",
"9.u z u J 6 , 6 = = # , g u , # u # # # k.`.k # Z m u 6 , u g g g = 6 z m P Z u # J P.2._ J D = m J L J m u u z J m Z J J u L |.",
"_ # g = P # 6 z = u Z P m u u u J J m , a.k.z j D u     6 m m u # , m P z 6 z u u m C.2.J u u = p u z z g u m m u ! P g u j J k.",
"e.u P 6 m = # # u ,   # = = = = g z z u C.C.m _ u u z g 6 m P J Z z Z m 6 u g u J P H.O.6 = P Z = u g g g z z g = g m = u P P F.",
"2.# # # m 6 6 s g = # , m Z m 6 # # # 6 P.A.f u g g g g g m 6 = D u u g g z e # 2 _ .XO.g z L m u u g g g g 6 , u = = 6 j m ! ^.",
"g.z 6 # # # # # # # 6 g # 2 # f , # , , 9.e.g   m s 6 6 u g = # , # = 6 u g = # # P K.O._ m m 6 u u g g 6 , = = L u 6 Z z u L e.",
"`.9.g.g.e.g.9.9.K.e.&.1.a.a.9.9.1.1.Q.1.K.{.g.g.e.9.e.1.g.k.k.e.F.k.C.k.1.9.g.k.H.C.{.g.P.e.1.5.9.a.F.A.k.e.g.C.9.9.C.k.9.g.v.{.",
"C.Q.P.Q.A.`.9.|.G.k.oXQ.C.K.F.F.v.K.^.A.P.K.K.F.v.C.{.n.F.{.g.P.v.Q.A.{.^.C.C.{.n.F.A.{.K.P.Q.C.F.A.F.^.Q.Q.C.k.F.F.P.C.F.A.G.Q.",
"g u 5 = u J Z C.F.Z 6 # # z g , u = # = u 6 = u u = u u ( g.L m # # #   u 6 = 6 P J Z z , u z u , $.F.P , 6 g P , 0 u u u g m J ",
"6 Z Z u # # 6 F.g.g Z P # # , : 6 6 # u u = u m p 5 = u O. X! u 6 u g g ! L m J Z g z u u z J z z _ C., , g u 5 ! z , = m J g = ",
"= m m J , u g G.K.= # p = , j , # = z m u # = u u u = e J P.Z g = Z / J P j u z u u g z g Z L g , 6 {.L m e = m L m 6 u u 6 = = ",
"/ J 5 5 6 P ! K.P.5 # J u u u # = m P z = = = # = u = u P Q.P 6 e m m u 6 = , u J m J P m m Z u # q {.P m z = m , u D Z = = 6 P ",
"m P u u , 6 z k.v.= 6 P m u = # u u u = = m u = = = = j ( ).! g m m , 5 u f z m L D g u = u g g u P K.B u g u , z g g Z P z Z P ",
"2 u m u , u m d.Q., # # = u = # 2 # # X # u , # # # # # ! t.m = 5 6 # 2 6 u e , g = = = # : 6 6 , { K._ = # 6 J m 6 X 6 Z m 6 # ",
"9.n.1.1.1.K.e.K.`.=.9.g.8.&.1.C.n.g.g.g.v.g.e.9.g.2.k.9.P.@Xg.g.9.k.n.g.C.C.e.9.v.a.g.g.9.9.g.9.k.F.F.K.C.g.1.e.9.9.g.v.a.1.=.9.",
"K.K.Q.!.!.H.H.H..Xa.K.Q.Y.H.V.!.U.e. XF.F.v.`.A.P.P.C.g.P.C.C.Q.H.}.!.Q.V.}.V.H.!.Y.H.Y.Y.Y.H.Y.Q.P.C.K.^.P.P.P.^.x.P.oXa.`.F.C.",
"z z l j j q q j D 5 j 6 q j [ Y.n.6 g g Z , u z u 6 = = j u u u j q q l ) x.*.[ ` E / E E F E E ! L L ! / / P J l P C.C., 6 u L ",
"q q l q 5 1 5 2 D j 6 5 5 2 z V.Q., g 6 P u m L , = # = m z 6 u ` l E j [ }.#.` [ [ [ .._ E / / z m L ( _ J z z _ _ C.H.e u u = ",
"z j l j j j j q j 5 5 5 D z l Y.F.g L , J # z u m m u g L P m m E j [ q l ^.| ` ` / E _ E D E E u z P ( P J Z D J P Q.Q.# = g u ",
"j j 5 1 5 j j 5 6 2 5 u J D l Y.C.j L 6 D = m u u g 6 , 6 , = e F q E 2 l Y.[ ` ` E E F l l D E 6 m ! _ P J J P Z ! Q.Q.# = m u ",
"5 5 5 5 j j k 5 5 5 6 5 5 5 l K.C.= 5 z ! m P P z P g u f g u g ` q q 5 E Y.#._ [ E J D J D D E z Z P P P m m J P ! F.F.u u u 5 ",
"5 j D j j l j j # # q q 5 q [ H.g.u # m g g # u = 6 = # 5 = = = 5 2 2 5 E a.#.[ E j q l l D j j Z J J L J z z J g ! K.n.# , u u ",
"*.u.H.x.u.u.q.*.V.q.V.H.u.a.x.Y.Q.g.k.Q.1.F.e.e.g.v.9.9.n.C.e.1.x.H.u.V.x.oXV.V.a.q.q.x.Y.Y.H.V.e.e.g.C.k.g.g.g.n.k.K.^.1.K.9.&.",
"Q.Q.H.}.u.Q.Y.H.V.H.x.Q.V..XK.Y.F.n.^.k.$XF.k.Q.`.v.@XC.C.F.A.n.H.H.a..X.XV.}.V.V.V.+XH.}.oXx.Q.g.P.`.P.C.F.K.C.^.K.k.C.Q.F.C.`.",
"j D u./ / F ..[ [ #.#.E q D J E ~ L ( 6 ! B _ F.n.Z J Z Z u e g D j j / D j z 6 l j E _ a.a.l q 5 u z u , u J _ Z Z m f z = = u ",
"j l .X` ` F / _ j | ..q 5 q E D u u ! L ..P ! F.|.P j m _ u = 6 z j D / / J E 6 j z E / }.Y.q q u m m u 6 z Z P 6 m P ! m , = z ",
"D F }.[ l | l D j l / 2 q 6 E / P m m j P L ! G.g.m 5 = P L m u D J J F l J / j E E F E H.Y.q l u g z m m m z 6 # 6 m m g = = g ",
"q l K.E j _ z l ` l D z E j E l _ J m m P m J K.v.D z 6 ! ! P J / / / l j D E j J D l E H.V.5 q , , 6 m P P Z z # , u u g 6 , u ",
"q D }.D l 5 z D [ D D J [ E F l u P ! _ m m z k.|.P z z L u m ( E j F j j D E E E l l / .XQ.6 5 z = 5 u m J z q 6 u g m P z g z ",
"D _ V._ D 6 D l l D D / E E D E J P D 6 = z P k.k.z g , u = , m q 2 q q q j j J E q z E V.V.z 6 u u = u 6 u = = = u g z Z g u z ",
"q.K.K.}.2.V.a.q.u.H.K.Y.q.v.a.a.u.a.1.1.g.{.a.F.oXa.F.e.g.C.P.H.H.u.Y.Q.V.H.u.x.V.,.q.a.!.Y.1.a.9.9.w.g.g.e.e.g.1.k.v.k.k.9.1.1.",
"P.C.C.K.P.H.H.Q.Q.v.P.@XK.k.{.k.{.`.v.Q.K.Q.g.`.C.P.k.{.k.C.^.P..XC.F.F.A.Q.C.Q.K.^.^.K.K.`.Q.C.H.H.Q.Q.H.Y.Q.Y.}.H.V.Y.^.Y.V.x.",
"P m u z u u u u P _ 9.1.6 = m m u m 6 Z g u , P _ m m P L z _ 9...D J P _ P Z J J J J P P L J J | D E [ u.a.[ F l E / E l q z E ",
"P J z m J m m m u D P.e.= = , 6 = f u m u g 6 ! j = J 6 P J ( ^.1.( ! L J m 6 z P P J ! ! Z J P / j l / H..X/ j l j D D E E E [ ",
"z z Z ! P P J Z u u K.1., m m m u u g u , = = m u u ! 6 z P J A.5.( ! P P m u z m m m J Z 6 u m / j / D V.Q.q F j q 5 5 j l E l ",
"l D J J u g g g L J F.1.6 ! P ! u m P z u # # g m m u m , m # C.=.! D J P P z _ L P J P J z z m D / | F H.Q.5 / q z D z 5 q j F ",
"J J P u u u g m g ! P.g.P z 6 : = u z = z u z J m , 5 P = g = `.1.P Z z J J g D ( ! P ! ! P P J j J / / Y.H.j l q q z 6 q j j E ",
"u j u 6 6 z z 6 : _ e.9.( , # # = # 6 # z z m J z = 2 P , z m k.1.Z m u u z , u L J z g m Z z u q j j l u.u.j l 5 2 2 2 z E l q ",
"a.e.w.w.k.C.e.$.9.A.F.K.F.1.2.g.C.g.g.1.K.a.g.1.9.v.1.v.1.C.Q.K.^.9.1.1.1.v.1.g.F.v.a.1.9.C.g.&.*.x.u.a.oX}.u.H.a.x.V.x.V.V.V.x.",
"F.Q.Q.K.F.F.K.Q.P.P.P.P.C.P.A.P.Q.k.v.P.C.P.P.C.C.P.`.n.C.`.^.F.Q.K.P.C.F.A.n.{.^.g.P.C.|.F.C. X!.Q.}.Q.V.V.Q.Q.Y.K.Y.u..Xx.H.#X",
", u z u u u g u g 6 = u g D m m ! { v.P 6 u u = 6 m m u u 5 , # # # 6 # u f J g.9.J Z u j = # = l z D l q q q j / D E / .XH.D 5 ",
"Z L ! P m g m g , u u m m z u = = Z `._ u F m z u m P L u u = 6 , e u u J 6 u {.g.m Z u D Z ! L ` l D D 5 5 j / z l / q u.u.6 D ",
"m m Z u u u g e u m P J u , 6 m u u A.P g 6 # = u u 6 u = = = , = u = = P g u Q.g.z D J J J P f j j l l q 5 j J l E / j Q.#X6 D ",
"u g , = , u g u m Z J m u u J ..P m oXP u = # = u = @ = 6 , = , # J j # u j k g.g.g P m g 6 m u q 5 j ` D j q 6 5 j j 2 u.Q.2 5 ",
"J z u , , 6 e u g u u u u m u 5 u _ @XJ = u f g m u u m J g : : u m u 6 , # = P.1.z m u u u m J F j F F l z D j j l D z q.H.5 D ",
"u u X # # # # # # # = 6 m u # # , ! 9.J # = = = 6 e = u u = # # = # 5 6 6 # 5 A.1.m m = , = = 6 _ E z 4 5 j D 5 5 5 2 J x.H.5 2 ",
"9.a.e.6.g.k.k.6.e.9.9.9.g.g.a.9.g.g.K.P.g.9.e.g.g.g.C.k.g.g.g.1.1.C.P.9.9.C.g.F.Q.e.g.1.F.g.9.k.V.V.H.a.a.H.x.*.x.H.2.V.H.Q.u..X",
"k.Q.k.P.`.`.e.Q.F.A.C.F.A.Q.Q.F.C.M.A.P.^.P.P.P.C.A.{.g.^.F.k.Q.P.n.C.`.`.F.C.P.C.{.P.P.P.C.Q.C.K.C.P.K.F.Q.F.Q.F.Q.k.F.Q.P.{.v.",
"Z m u J e.K.m g , g g g , = , g = u m u 6 u m L _ 9.k.u z s , # = , u m m u u g = 6 6 m g u m n.k.J u u z P g , u u J Z Z D u 6 ",
"# z Z Z &.a.= Z g z g g g g g u u u m f u u j D g 1.{.g P z L z u z P z g f m J P ( P ( g m u {.F.L J m u u m m g , ! Z m f = g ",
"g u 6 , 9.F.# m Z g 6 g z Z z g u u u 6 m u u @ g o.Q.g P 2 u Z D P m e # u P F J ( J z u *.u Q.F.= # j m ! P u Z g Z D u = # m ",
"L u = z C.A.# m u u m m g u u Z z 6 e = u u = # g O.Q.u Z # g m z P m 6 # u Z L u u = = = O.5 n.G.e , Z Z _ ! u z P 6 J u # m J ",
"= 2 = ! F.F.# p z z z m z 6 6 g g z m u = = j z , =.P.= z z ! P 6 z z 6 6 g J J m u 5 u u j , P.K.P Z Z 6 u g z = J # L P # ( m ",
"u 6 6 m e.K.u # z 6 = u z u , = 6 6 g 6 = = j Z 5 o.9.# 6 j m 6 # 6 u u 6 z u , = # = u j e J P.k.z = # 6 u = # # z : z z = P 6 ",
"=.A.n.g.n.'.k.F.9.9.a.v.k.1.9.g.e.9.1.9.9.5.e.9.1.F.|.e.F.n.9.F.9.g.a.k.k.9.9.&.C.g.9.m.v.9.g.F.|.k.k.9.9.e.9.C.C.C.a.k.k.k.k.9.",
"A.C.^.{.k.n.`.C.K.|.g.K.@XA.k.Q.C.A.P.P.F.C.C.C.{.K.C.F.Q.A.F.C.v.K.{.C.F.P.n.K.n.P.P.Q.A.F.k.`.P.C.P.C.K.G.g.Q. Xg.{.g.K.K.k.Q.",
"z = = u u m Z u , Z z Z g.F.! u ! m D 2 u = J Z g z Z m g , g m z { g.1.Z z j m u J J D L m z J Z J P Z g m L g.9.z P u g z m L ",
"z u P J u u D Z Z ! m L P.C.# # u m 6 m = m u m , g g u , u u 6 6 ( P.9.m j z z u D Z u m Z z g g f g z # u m ^.Q.g L u u g m J ",
"z z J P u 6 u J g 6 u g F.k.# m 2 u u ( u ( u D u m m 6 u Z z = m ! g.*.u J L u z _ P j J P J j P P g ( e Z m A.^.6 J _ P F J Z ",
"m u 5 6 P ! m g 6 z Z 6 9.Q.g J u = m = L 6 P m u z g u z J m 6 ! ..k.=.u J P = z _ / m J P P m z Z g ..u Z u F.P.= P ! _ L z u ",
"P J g m ( ! Z L J _ P P Q.A.6 , J g P 6 P , m j = z J m z m P P J { P.9.m m m u z P J j m J m J 6 z f ! u u m `.P.u J m J u u 6 ",
"u u u u z 5 = m z z = _ P.e.m g u Z z P e j 5 = = u u u u u m P 6 ( g.*.D j 6 m u m m 5 u 6 6 m g m L _ g g P C.g.j f u u , % 5 ",
"O.O.! ( 2.O._ =._ 1...O.F.P.e.$.{ ....| O.( O.( o.( ( ( O.O.{ ( O.w.P.g.1.O./ O.O.1.O.O.O.( { 1.&.o.$...o.....v.{.o.1.| 1.o.~ 1."
};
