/* XPM */
static char *_578598572909[] = {
/* columns rows colors chars-per-pixel */
"64 64 30 1 ",
"  c #979C96",
". c #999A97",
"X c #979C98",
"o c #9C9D9B",
"O c #A09F9D",
"+ c #9EA19E",
"@ c #A0A29F",
"# c #A19FA0",
"$ c #9FA1A0",
"% c #A3A5A2",
"& c #A6A8A6",
"* c #A8AAA7",
"= c #A7A9A8",
"- c #ABADAA",
"; c #AEB2AD",
": c #B2B4AF",
"> c #AFB1B0",
", c #B4B6B3",
"< c #B6B9B5",
"1 c #B9BBB6",
"2 c #B7BAB8",
"3 c #BBBDBA",
"4 c #BEC1BD",
"5 c #C1C2BE",
"6 c #BFC1C0",
"7 c #C2C4C1",
"8 c #C7C9C4",
"9 c #C9CBC7",
"0 c #C7C9C8",
"q c #C8CAC9",
/* pixels */
"8357366667444854737276177533444441451354748483358555555553555555",
":+@o##o$%+oo+o+o#.oo<4%oo%%o.oo@*@ooo+@o@%1*&%@@@%@@OOoo@o@@*@&4",
"<O@+%ooooo.oo+o.$...17$.@@+oooOOoooo+%@O.%5:*@%o@@@@@oo@&@@@@@@8",
"*.oo%.oo.o%%@@oo$%%o14++%o. o$@o.o@%@o@oo@4,@@@.+@@@@o@@@@*@O@@4",
"<+%o#.o.oo..oo.oo#$#34%=o+oOo@%%%@%@oo+o$*3-+o%%o+OO++o@.@@.O@%5",
";.o.oooo#oXo@@oo...o74+o+@OOo@o.%oooo@+..*8-oo&@oOo@Oo+o+..o+@@5",
"1+o.oo...X.oo..@o.oo<<#.@@..o@o..o.++o.o.&5-*@@ooo@@ooo.@+o@@@*<",
"8<11,22,6,,,11,<:<5,4731,,1<333<4443,<3143815<:<,3531<14<,51<155",
"474757<773776634667663434381551547475448345545534447774155554455",
"++oo+%%43%o..#ooo...ooooooOo-3@+  ..o+.o%%%+oO@++*4&oo+*+oooo@@@",
"o@%o..o41o%%ooo.ooooOo#%+o @-8*+ooo#%%@%@@++@@@@+&1+o+oo@@+o@@@o",
"o@%%oo+77..$.ooo.oo%o.oooo+@@5@oo%%%%Oo%+o@+@@%@.o8%+o.+@@o@+oo ",
"&%o.o%%66.o%oooo.$*$o...oOo@@5&+o@$oo..o%%%%++@o.+5&%o.%oO%%+ +@",
"+%+o.#%16.o%%o..o#oXo$#o ..O-7&o@@ooo%+%%%%ooo++o&5@+$oo@o+%@+@@",
".o++.o%17.o....o..XoXoo.....*<++oo..o#oo+o+X.o+oo*4&..o%%..o@@+.",
"<1,:,4,67-,3,,,36221321,1,117911,131342<111<,,1,334441<<<,151:;<",
"6666666662666666620626665441443566662062666666665555585554484544",
"#%#$$oXo#o##$#=62$#$$oo$oooo++++$o$$=2>===$==$=$*@@&*@@&+&44+ @@",
"o$$$oXXo###XXo#26o$o=o$=.o.o@+oo=#=$=0>====>====@@@*&@+@&&44o++.",
"###oo$$o#XXX###66$$o$.$o@%o+%%+@$$$#$6====$==$$=@@@**@@@@&55..++",
"$oXoo$oooXX#$$$63$%o%o$oo@oooo.o=$$o#6>===$$$$$=++@-*@&&@%74.o+o",
"oooXo$$ooo#Xoo$64.oo=$%=@%+o+O@@=o$o$6>====$$$$=@@@&@@@@&&44+oO.",
"o#$$#$$$oX$$o$=61o.%oo.o.+o...  #XXX=2>=$$o###$#@@&@*@@@+&44oo+o",
"=26222>>222222667337,62,14<,34,:2622276622226666111451114177>41;",
"606626666626666643739418749355546626060666066q261454355574147435",
"$$2=$=>==>==$$#==%*+%%*44@%%@.++$#$=$#$X##$=22#o+@@+o@@@%%@++o.@",
"#$0==$==$=>#Xo$=o+%%*%*48%o@&ooo$$$=$=$#o#$=60$oo@@Oo@@*o+%&%.o@",
"$$0=$=$$$$#X$o=$&@@o%%*71@oo&%+o#$=$$$$$=%%=66o$+++@+@Oo.o+@+o.@",
"$$6#$=$$=$=$=$$=%%@@@@%44%O+%*%%===#$#=#=$$%66o#.oo+*@@O.oo++o.+",
"$$0$$$$$=$$$=$=$+%&&@@@38%@@%o+*$$$$$$=$$$$=66o.+o.+@@@@oO@+%@o+",
"$$6=$o$$$#$==$=#%&++.%%41$@oooo%$X$$X$#$=o$=63$o++.++oo..oo@%@O@",
"2660>62226662222,1:,18<3914,1464626626266>2266,1,<<11<<3:3434,::",
"5344544774484183583757183838347766662737555555555477666666666662",
"*@o@o+oo**<,+o@$o@o%oo.%*@@@@@*,>$%%=%%=*@*@@&@@*%&=22==$=$=$$#=",
"%@@@%%@@o%5<o..oo@o%oOo*@o@@@&*5>$==%@oo@*@*@@@*=$$%60$#$$$$$=$=",
"@@&@@&%%oo4,o$%%o@+Oo..@oo@o@&%52==$%%#o@@@@&@@@%$=$66$%oooo$$=$",
"+%%@@Oo@%%4:+%%%o@%@oooo@@+@o@o3;%%%%%@*@@@@@@@@$==%67o%o$$ooo#$",
"@%%@oo@@+*71%+o.oo@o@oO%@o.%oo.8;%%+%%o%**-*&*@@$$=$66o$o#$o$$$$",
"o@ooo@o+.*<<*...ooo.%o@%@o.%o+%1:&+o+$o+@@@@@@@+$$$$22$$oXoo##$$",
"<<<<34<-,6444,,1311:511,,3,3:4748,:,<1,1441:<41:>222072622626662",
"555555455774444471474644445445745773473871748448066662666662026q",
" +@@OoOooooo+%++%-1%o+o.++++.+. ..o.o+%1<%%o+..o$$$#oo$$=#$=66$#",
"@@*@@+@@o+o+%+ooo%7*o%+@o+%%+o.+oooo%oo71@%@&@&&=$$$oo$=$$=$22$#",
"@@@@o@ooo@*%oo++#+4%+o.o+o+o+ .+oooo%$#71+%%@@%+#$$#$o$$$=$$60$$",
"oOooo+@o+%%@oo%-%%8%O...+.oo+ooo.%oooo#11%&@o+@+X$#$$$oooo#o>6Xo",
"@@oo.+oo$oo++%+oo*8%oo$+@oo%@oo.o%oooo.6,+@++.+@$$=$$$$$#$$#26##",
"@o..o..oo.oo+o.oo%<%o.ooooo++.o..o.oooo7;++.o.o+=$#$$#$$ooo#26XX",
"<1,<133,<<,<31<<11472,<11343111,,37,,3138,1,41,46262262>22>66620",
"383587<753347754444555554581553554555445555554546666473745455584",
"@@o%,6@ooO@@o.oooo@+oo@@*,1+@@o..o@@@OO@..o@@o@36$o$+*@oo+@*@@++",
".O@&,1.%++oooOOo+o@++o@%O:8o@@@@++@@@+@&&&&*O@o86$#$oo$%@o*@@@.o",
"++oo,3.+%OoO%%@@o+oo+@o.O*8@@o@@@@@o.o@@@&@+@*@52oo$+*%o@@@@o..@",
"@@o+17.%+o$+ooO%OoooOoo.@-7+@.O@@@@o.o@*++ o.*+46$o$%=*o+%o%@.%%",
".oo%44.+@+o%@oooOo++ooo@.:5.+@*@+@@ooO@@@+.o+@o56=%$o#o$.%.%%.=+",
"oo.+,7+o%.oo+oo.oooo.oo@o-,ooo@o.oooo@Ooo..O@o@52$oooooo.+.%+o%.",
":5313514<<141<,11,,,1,<1,48<43<5<1134<,:33<34,356622,<<33413333,",
"5455445438459435444644345545555144844716455584355573471591815537",
"@ +@+@@+o%@@13*+*@@.o.%%@@@@ooO@+-1;%++++@@@@@@@@%%%o@%1,%%+oO@%",
"Oo@*+o%%%@@@73..o@+@o%o@.@@.o++++*4<O@+++@@@@@@@@@@@.o@87o%@o@@%",
"O@@@+o@@+++@61.@.+.*+*o%o@@o@@@oo&1;o%%oO*%+%&@@%%O*+%@58o%%*%%%",
"@+.+@&+@.+%o15o%@.@o@o%@++ooo%@@&*3>o%%.@&&@%*%@@%o-o%o37.%&*%@o",
"&@++*&%@%%&%77oo@@@@@o@Oo@@@@@@@@-7<%@@O@@@@@@@@oo@*+O@87o%%%ooo",
"+@oo+o.@%oo=7,@O+@@*@@Oo.O@@@O@%o*1;@@o@@@@o+oo@@@%*Oo%51o@o+o.o",
"**&*,-*;*:--171--***-**-*-%**:*-*<71:-&*-:--*&-::------45;:-;**:"
};
